<svg width="23" height="23" viewBox="0 0 23 23" fill="none" xmlns="http://www.w3.org/2000/svg">
<path d="M5.99771 13.1377L4.63103 19.0557C4.58871 19.2349 4.60141 19.4227 4.66748 19.5945C4.73355 19.7664 4.84992 19.9143 5.00138 20.0191C5.15284 20.1238 5.33236 20.1804 5.51648 20.1814C5.70061 20.1825 5.88078 20.1281 6.03348 20.0252L11.0278 16.6956L16.0222 20.0252C16.1784 20.1289 16.3627 20.1823 16.5501 20.1782C16.7376 20.1741 16.9194 20.1127 17.0709 20.0022C17.2225 19.8917 17.3365 19.7375 17.3978 19.5602C17.4591 19.383 17.4646 19.1912 17.4136 19.0107L15.736 13.1404L19.8966 9.39628C20.0298 9.27629 20.125 9.11988 20.1703 8.94638C20.2156 8.77289 20.209 8.58992 20.1515 8.4201C20.0939 8.25029 19.9878 8.10107 19.8463 7.99091C19.7048 7.88075 19.5341 7.81448 19.3554 7.80029L14.1262 7.38386L11.8634 2.37485C11.7913 2.21356 11.674 2.0766 11.5257 1.98049C11.3774 1.88439 11.2045 1.83325 11.0278 1.83325C10.8511 1.83325 10.6782 1.88439 10.5299 1.98049C10.3817 2.0766 10.2644 2.21356 10.1922 2.37485L7.9294 7.38386L2.70025 7.79937C2.52456 7.81329 2.3566 7.87753 2.21646 7.98441C2.07632 8.09128 1.96994 8.23627 1.91005 8.40202C1.85015 8.56777 1.83928 8.74727 1.87872 8.91904C1.91817 9.09081 2.00627 9.24758 2.13248 9.37059L5.99771 13.1377V13.1377ZM8.61458 9.16972C8.7783 9.15682 8.93553 9.10012 9.0698 9.00555C9.20407 8.91098 9.31042 8.78203 9.37771 8.63222L11.0278 4.98071L12.6779 8.63222C12.7452 8.78203 12.8516 8.91098 12.9858 9.00555C13.1201 9.10012 13.2773 9.15682 13.4411 9.16972L17.0843 9.45865L14.084 12.159C13.8235 12.3938 13.7199 12.7552 13.8153 13.0927L14.9646 17.1148L11.5378 14.83C11.3874 14.729 11.2103 14.6751 11.0292 14.6751C10.848 14.6751 10.671 14.729 10.5206 14.83L6.93971 17.2175L7.9028 13.0478C7.93811 12.8944 7.93338 12.7346 7.88904 12.5836C7.8447 12.4326 7.76226 12.2955 7.64965 12.1856L4.86309 9.46874L8.61458 9.16972V9.16972Z" fill="#F3CD03"/>
</svg>
