<svg width="23" height="23" viewBox="0 0 23 23" fill="none" xmlns="http://www.w3.org/2000/svg">
<path d="M20.1366 8.41927C20.079 8.24946 19.9729 8.10025 19.8314 7.99006C19.6899 7.87987 19.5192 7.81353 19.3405 7.79922L14.1113 7.38371L11.8485 2.3747C11.7764 2.21337 11.6592 2.07634 11.511 1.98016C11.3628 1.88397 11.1899 1.83274 11.0132 1.83264C10.8365 1.83254 10.6636 1.88359 10.5152 1.97961C10.3669 2.07563 10.2495 2.21253 10.1773 2.37378L7.91448 7.38371L2.68533 7.79922C2.50964 7.81314 2.34167 7.87738 2.20154 7.98425C2.0614 8.09113 1.95502 8.23612 1.89512 8.40187C1.83523 8.56762 1.82435 8.74712 1.8638 8.91889C1.90325 9.09066 1.99135 9.24743 2.11756 9.37044L5.98187 13.1375L4.61519 19.0555C4.57369 19.2347 4.58699 19.4221 4.65336 19.5936C4.71974 19.7651 4.83612 19.9127 4.9874 20.0172C5.13869 20.1217 5.3179 20.1783 5.50177 20.1797C5.68565 20.1811 5.86569 20.1272 6.01856 20.025L11.0129 16.6955L16.0072 20.025C16.1635 20.1288 16.3477 20.1822 16.5352 20.1781C16.7227 20.1739 16.9045 20.1125 17.056 20.002C17.2075 19.8916 17.3216 19.7373 17.3829 19.5601C17.4441 19.3828 17.4497 19.1911 17.3987 19.0106L15.7211 13.1403L19.8816 9.39612C20.1541 9.15031 20.254 8.7669 20.1366 8.41927V8.41927Z" fill="#F3CD03"/>
</svg>
