<svg width="23" height="23" viewBox="0 0 23 23" fill="none" xmlns="http://www.w3.org/2000/svg">
<path d="M21.1116 8.41927C21.054 8.24946 20.9478 8.10025 20.8064 7.99006C20.6649 7.87987 20.4942 7.81353 20.3155 7.79922L15.0863 7.38371L12.8235 2.3747C12.7514 2.21337 12.6342 2.07634 12.486 1.98016C12.3378 1.88397 12.1649 1.83274 11.9882 1.83264C11.8115 1.83254 11.6385 1.88359 11.4902 1.97961C11.3419 2.07563 11.2245 2.21253 11.1523 2.37378L8.88947 7.38371L3.66032 7.79922C3.48463 7.81314 3.31667 7.87738 3.17653 7.98425C3.03639 8.09113 2.93001 8.23612 2.87011 8.40187C2.81022 8.56762 2.79934 8.74712 2.83879 8.91889C2.87824 9.09066 2.96634 9.24743 3.09255 9.37044L6.95686 13.1375L5.59018 19.0555C5.54868 19.2347 5.56198 19.4221 5.62835 19.5936C5.69473 19.7651 5.81111 19.9127 5.96239 20.0172C6.11368 20.1217 6.29289 20.1783 6.47676 20.1797C6.66064 20.1811 6.84069 20.1272 6.99355 20.025L11.9879 16.6955L16.9822 20.025C17.1385 20.1288 17.3227 20.1822 17.5102 20.1781C17.6977 20.1739 17.8794 20.1125 18.031 20.002C18.1825 19.8916 18.2966 19.7373 18.3579 19.5601C18.4191 19.3828 18.4246 19.1911 18.3737 19.0106L16.696 13.1403L20.8566 9.39612C21.129 9.15031 21.229 8.7669 21.1116 8.41927V8.41927Z" fill="#F3CD03"/>
</svg>
